<svg width="196" height="64" viewBox="0 0 196 64" fill="none" xmlns="http://www.w3.org/2000/svg">
    <g clip-path="url(#clip0)">
        <path d="M151.271 52.9523C149.984 51.3967 149.01 49.6028 148.404 47.6712C148.345 47.5114 148.293 47.3515 148.24 47.1798C148.187 47.0081 148.128 46.8009 148.069 46.5878C148.011 46.3746 147.999 46.3391 147.964 46.2148C147.905 45.9898 147.848 45.7648 147.793 45.5399L147.705 45.1373C147.623 44.7426 147.55 44.3479 147.488 43.9532C147.488 43.8111 147.441 43.6631 147.423 43.521C147.392 43.2881 147.362 43.0513 147.335 42.8105C147.335 42.6566 147.305 42.5027 147.288 42.3487C147.27 42.1948 147.247 41.9521 147.235 41.7567L176.459 34.4331C176.31 32.8548 175.88 31.3165 175.19 29.8921C174.122 27.4596 172.364 25.3996 170.137 23.9717C167.683 22.366 164.909 21.3231 162.011 20.9167L161.524 20.8398C159.782 20.6249 158.022 20.611 156.277 20.7983C151.654 21.3294 147.33 23.3711 143.967 26.6115C140.604 29.852 138.386 34.1129 137.652 38.7432V38.9267C137.605 39.2405 137.558 39.5543 137.523 39.8681C137.5 40.0615 137.48 40.2588 137.464 40.4601C137.464 40.6259 137.464 40.7917 137.423 40.9574C137.423 41.2456 137.41 41.5357 137.382 41.8277V43.1776C137.47 45.6703 137.995 48.1277 138.933 50.4361C142.259 58.6004 150.137 63.988 158.469 63.988C161.999 64.061 165.492 63.25 168.635 61.6278C171.778 60.0055 174.472 57.6227 176.476 54.6929L175.977 53.3785C173.909 57.5288 159.673 62.6263 151.271 52.9523ZM164.549 34.9304L147.194 39.276C147.194 38.7392 147.219 38.2104 147.27 37.6894V37.494C147.27 37.3203 147.288 37.1466 147.323 36.973C147.323 36.7362 147.376 36.4934 147.411 36.2625C147.57 35.134 147.816 34.0195 148.146 32.9293C148.732 30.9177 149.632 29.0131 150.813 27.2871C151.871 25.7413 153.233 24.4314 154.814 23.4388C156.335 22.4898 158.09 21.9932 159.879 22.0061C162.366 22.0061 164.187 22.7383 165.343 24.2026C165.746 24.7151 166.082 25.2783 166.341 25.8781C167.528 28.8916 167.446 33.995 164.549 34.9304ZM99.175 53.3904C97.0952 57.5347 82.8711 62.6322 74.4694 52.9523C73.0845 51.2701 72.0567 49.3195 71.4495 47.2213C70.717 44.8288 70.3582 42.3361 70.3861 39.8326C70.3685 37.4973 70.6972 35.1726 71.3614 32.9352C71.9479 30.9257 72.8483 29.0231 74.0287 27.299C75.0863 25.7532 76.4482 24.4432 78.0298 23.4507C79.5503 22.5017 81.3059 22.005 83.0943 22.0179C85.5815 22.0179 87.4029 22.7501 88.5584 24.2144C89.7512 25.7922 90.3638 27.7382 90.2916 29.7204C90.3151 30.753 90.1641 31.782 89.8451 32.7635L98.705 30.6026C95.4853 21.8758 84.804 20.7214 82.8417 20.7214C65.9267 20.4431 56.6555 37.044 62.1195 50.4716C65.4508 58.6122 73.3296 63.9998 81.6666 63.9998C85.1971 64.0728 88.6904 63.2619 91.8333 61.6396C94.9761 60.0174 97.6704 57.6345 99.6744 54.7047L99.175 53.3904Z" fill="#332B3C"/>
        <path d="M137.647 53.3906C135.567 57.5349 121.343 62.6324 112.941 52.9525C111.556 51.2703 110.528 49.3197 109.921 47.2215C109.188 44.829 108.83 42.3363 108.858 39.8327C108.84 37.4975 109.169 35.1728 109.833 32.9354C110.419 30.9238 111.319 29.0192 112.5 27.2932C113.558 25.7474 114.92 24.4375 116.501 23.445C118.022 22.496 119.777 21.9993 121.566 22.0122C124.053 22.0122 125.874 22.7444 127.03 24.2087C128.223 25.7865 128.835 27.7325 128.763 29.7147C128.787 30.7473 128.636 31.7763 128.317 32.7578L137.165 30.5969C133.957 21.876 123.281 20.7216 121.325 20.7216C104.41 20.4433 95.1387 37.0442 100.603 50.4718C103.928 58.6124 111.807 64 120.138 64C123.669 64.073 127.162 63.2621 130.305 61.6398C133.448 60.0176 136.142 57.6347 138.146 54.7049L137.647 53.3906ZM189.255 55.3206V0L176.758 3.16744L176.67 3.20296V4.39297C177.111 4.39297 180.895 5.52377 180.895 8.19389V55.1253C180.895 61.0457 176.87 61.9101 174.15 62.0936V63.0764H196.006V62.0936C193.297 61.9042 189.349 61.0398 189.255 55.3206ZM38.0308 0L25.6516 3.1556L25.5634 3.19112V4.14431C26.0041 4.14431 29.6761 5.50009 28.6421 7.94524C24.0006 18.7382 8.73069 54.8707 7.92578 56.4929C5.28777 61.9456 1.5452 61.9101 0 62.0877V63.0764H19.3885V62.0699C19.3885 62.0699 12.0267 62.1647 12.0267 58.1506C12.0267 55.7173 15.8281 46.1558 16.8739 43.5508L42.1376 37.1449C42.167 37.2988 48.9589 54.4326 48.9589 58.0204C48.9589 61.9219 42.9191 62.0463 42.7369 62.0463V63.035H68.0007V62.0463C66.6376 61.9871 62.1254 61.9219 59.4698 56.41C58.753 54.9003 38.0308 0 38.0308 0ZM41.2505 34.9306L17.9314 40.8511C18.0548 40.5373 30.7454 9.59704 31.1038 8.82146C31.6326 10.1121 41.2505 34.9306 41.2505 34.9306Z" fill="#332B3C"/>
    </g>
    <defs>
        <clipPath id="clip0">
            <rect width="196" height="64" fill="white"/>
        </clipPath>
    </defs>
</svg>
