<svg width="266" height="79" viewBox="0 0 266 79" fill="none" xmlns="http://www.w3.org/2000/svg">
    <g clip-path="url(#clip0)">
        <path d="M88.857 28.0918C84.1283 28.0918 83.9994 28.3867 84.2288 29.7982H85.8043C87.2815 29.7982 87.6104 29.9971 87.6104 31.2751V46.7705C87.6104 48.9702 86.9866 49.2011 83.4738 49.3977C83.3684 49.8243 83.3684 50.3501 83.4738 50.6775H95.811C105.199 50.6775 109.073 46.1455 109.073 39.3831C109.073 32.3584 104.964 28.0889 95.5067 28.0889L88.857 28.0918ZM91.713 46.5427V30.0286H95.0959C101.4 30.0286 104.682 33.7035 104.682 40.0094C104.682 47.0784 101.104 48.8808 95.4903 48.8808C92.4353 48.8808 91.7143 48.5531 91.7143 46.5518L91.713 46.5427ZM123.63 28.3212C122.084 28.3212 121.66 28.8479 120.574 31.3759L114.075 46.7732C113.187 48.8702 112.892 49.0668 110.364 49.3968C110.266 49.8234 110.266 50.3492 110.364 50.6766H119.755C120.574 50.6766 120.805 50.15 120.574 49.1993H117.753C115.946 49.1993 115.946 48.7078 116.7 46.7696L118.046 43.1883H126.518L128.587 48.1469C128.949 49.001 128.587 49.2959 125.008 49.3942C124.909 49.8269 124.909 50.3536 125.008 50.681H135.646C136.5 50.681 136.699 50.1544 136.5 49.2064H135.751C134.078 49.2064 133.715 48.9132 133.352 48.0591L125.767 30.7607C125.24 29.6135 125.018 29.0631 124.912 28.3381L123.63 28.3212ZM122.184 32.8505L125.764 41.3896H118.77L122.184 32.8505ZM140.079 28.7496C138.7 28.7496 138.503 29.3719 138.7 30.2242H140.277C141.787 30.2242 142.081 30.4231 142.081 31.605V47.297C142.081 48.643 141.449 48.9708 138.827 49.3979C138.687 49.8254 138.687 50.3512 138.827 50.6786H148.8C149.783 50.6786 149.877 50.1519 149.655 49.2021H147.887C146.506 49.2021 146.178 48.9722 146.178 47.824V32.2276C146.178 30.8489 146.6 30.2263 149.456 30.0273C149.549 29.6996 149.549 29.0442 149.456 28.7481L140.079 28.7496ZM179.513 28.7496L171.928 44.5399L163.686 28.7481H157.055C155.685 28.7481 155.486 29.462 155.685 30.2227C158.939 30.3163 159.138 30.6792 159.033 31.7325L157.687 47.158C157.593 48.539 157.289 49.1944 153.683 49.3933C153.59 49.8147 153.59 50.2474 153.683 50.6687H164.452C165.377 50.6687 165.506 50.1421 165.272 49.1941H163.504C160.028 49.1941 160.028 48.8658 160.121 47.579L161.175 32.8323L170.246 50.7513C170.995 50.7513 171.265 50.5523 171.862 49.3701L179.747 32.8212L181.222 47.1348C181.386 48.7376 180.927 49.101 178.171 49.2643L176.396 49.3573C176.267 49.7787 176.267 50.2018 176.396 50.6327H187.984C188.906 50.6327 189.003 50.1061 188.906 49.1581C186.377 48.8298 185.851 48.7367 185.752 47.6834L184.172 31.6613C184.076 30.7133 184.274 30.1867 187.321 29.9874C187.459 29.5661 187.459 29.1325 187.321 28.7111L179.513 28.7496ZM195.208 28.7496C193.829 28.7496 193.632 29.3719 193.829 30.2242H195.403C196.784 30.2242 197.21 30.4231 197.21 31.605V46.6404C197.21 48.7741 196.487 49.2013 193.302 49.3979C193.197 49.8254 193.232 50.2502 193.302 50.6786H209.315C209.736 48.6421 210.333 46.7391 211.023 44.7685C211.362 43.7898 210.929 43.3877 210.04 43.3877L209.935 43.3913L209.009 45.4259C207.628 48.3814 207.3 48.5464 204.866 48.5464H202.759C201.834 48.5464 201.272 48.2506 201.272 47.1657V32.6551C201.272 30.5215 201.927 30.2254 205.373 30.0275C205.467 29.6999 205.467 29.0444 205.373 28.7483L195.208 28.7496ZM216.484 28.7496C215.04 28.7496 214.908 29.3719 215.04 30.2242H216.608C218.083 30.2242 218.376 30.4231 218.376 31.605V46.773C218.376 48.9709 217.743 49.2014 214.267 49.398C214.138 49.8252 214.138 50.25 214.267 50.6784H232.387C232.808 48.6419 233.44 46.6406 234.096 44.7674C234.412 43.8194 233.99 43.3858 233.112 43.3858L233.007 43.3893L232.082 45.4231C230.701 48.3777 230.374 48.5428 227.939 48.5428H225.118C222.883 48.5428 222.59 48.0512 222.59 46.8688V41.0895H226.034C226.89 41.0895 227.316 41.3854 227.744 43.945C227.914 44.0222 228.114 44.0564 228.309 44.0564C228.527 44.0564 228.737 44.0213 228.895 43.9511C228.798 41.8207 228.798 39.5499 228.895 37.4907C228.961 36.4724 228.602 36.2495 227.947 36.2495H227.552L227.33 37.923C227.228 38.7776 227.031 39.1053 226.047 39.1053H222.599V30.6695H227.855C229.66 30.6695 230.348 31.1962 230.906 33.1975L231.34 34.6722C231.421 34.6841 231.491 34.6841 231.565 34.6841C232.443 34.6841 232.771 34.1339 232.619 33.1976C232.392 31.7932 232.197 30.2483 232.098 28.7736L216.484 28.7496ZM239.993 28.6498C238.646 28.7481 238.416 29.3718 238.646 30.225H240.222C241.569 30.225 242.03 30.4238 242.03 31.7113V46.8793C242.03 48.8806 241.372 49.2082 238.515 49.4073C238.416 49.8402 238.45 50.3318 238.515 50.6946H248.858C249.811 50.6946 249.91 50.168 249.811 49.22H248.138C246.43 49.22 246.135 48.8921 246.135 47.9442V43.1226H248.335C250.337 43.1226 250.404 43.2279 251.224 44.7026C252.079 46.2123 253.261 47.5349 254.345 48.4829C256.774 50.5896 258.777 51.2448 261.831 51.2448C265.319 51.2448 266.138 50.3905 265.845 49.2435C262.99 49.2435 261.55 48.9509 257.219 45.4632C255.978 44.445 253.508 42.1862 253.508 42.1862C256.236 41.0392 257.944 38.8037 257.944 36.0534C257.944 31.5592 254.468 28.5747 248.159 28.5747C243.57 28.5747 241.592 28.5747 240.024 28.7034L239.993 28.6498ZM246.169 30.4756H247.291C251.002 30.4756 253.624 31.8573 253.624 36.2856C253.624 40.714 251 41.2442 247.748 41.2442H246.171L246.169 30.4756Z" fill="#656868"/>
    </g>
    <g clip-path="url(#clip1)">
        <path fill-rule="evenodd" clip-rule="evenodd" d="M39.3323 0C17.5917 0 0 17.6667 0 39.5C0 61.3333 17.5917 79 39.3323 79C61.073 79 78.6646 61.3333 78.6646 39.5C78.6646 17.6667 61.073 0 39.3323 0ZM9.03013 22.0098C15.1999 11.2647 26.6023 4.59804 38.9418 4.44118L34.1778 36.2843L8.87393 56.8333C2.78226 46.0098 2.78226 32.7549 9.03013 22.0098ZM39.4885 74.7941C27.149 74.8726 15.6685 68.3627 9.26443 57.6176L39.3323 45.1471L69.5564 57.4608C63.2304 68.1274 51.8281 74.7157 39.4885 74.7941ZM69.9469 56.598L44.3306 36.6765L39.8009 4.36275C52.1405 4.51961 63.3866 11.1863 69.5564 21.9314C75.8043 32.6765 75.9605 45.7745 69.9469 56.598Z" fill="#656868"/>
    </g>
    <defs>
        <clipPath id="clip0">
            <rect width="182.49" height="23.1128" fill="white" transform="translate(83.3993 28.0889)"/>
        </clipPath>
        <clipPath id="clip1">
            <rect width="78.6646" height="79" fill="white"/>
        </clipPath>
    </defs>
</svg>
