<svg width="266" height="88" viewBox="0 0 266 88" fill="none" xmlns="http://www.w3.org/2000/svg">
    <path d="M61.0185 58.4427C59.6588 58.4427 58.639 57.4351 58.639 56.0915C58.299 50.7175 58.469 45.5114 59.3188 40.3053L59.4888 38.6259L58.299 39.9694C57.7891 40.6412 57.1092 41.145 56.5993 41.8167C56.0894 42.3205 55.5795 42.4885 54.8997 42.4885C54.2198 42.4885 53.7099 42.3205 53.2 41.8167C52.6901 41.3129 52.5201 40.8091 52.5201 40.1373C52.5201 39.4656 52.6901 38.7938 53.2 38.4579C59.9987 31.4045 63.568 25.5266 63.568 25.5266C64.0779 24.8549 64.7578 24.3511 65.7776 24.3511C66.1176 24.3511 66.6275 24.519 66.9674 24.687C68.1572 25.3587 68.6671 26.7022 68.1572 27.8778C68.1572 28.0457 62.8882 39.6335 63.908 56.0915C63.908 56.7633 63.738 57.435 63.2281 57.9389C62.3783 58.1068 61.8684 58.4427 61.0185 58.4427C61.0185 58.4427 61.1885 58.4427 61.0185 58.4427ZM26.1751 61.6335C23.9655 61.6335 22.0958 61.1297 20.0562 59.9541C17.8466 58.7786 16.4869 56.7633 15.807 54.2442C14.7872 50.3816 15.977 45.6793 19.5463 40.3053C23.7955 33.9236 29.7444 29.8931 35.8632 29.5572H36.5431C39.0926 29.5572 41.3022 30.3969 42.322 31.7404C43.5118 33.2518 44.1917 35.2671 43.8517 37.2824C43.3418 40.4732 41.1322 43.4961 37.5629 46.0152C34.1636 48.3663 29.9144 49.8778 26.345 49.8778C25.3252 49.8778 24.4754 49.7099 23.6255 49.5419C22.9457 49.374 22.2658 49.0381 21.5859 48.7022L20.906 48.3663L20.7361 49.0381C20.2262 50.8854 20.3961 52.2289 20.5661 53.0686C20.906 54.2442 21.4159 55.0839 22.4358 55.5877C23.2856 56.0915 24.3054 56.5954 26.1751 56.5954C29.9144 56.5954 35.1834 53.9083 42.322 48.5343C43.3418 47.8625 44.3616 46.8549 45.3814 45.8473C45.7214 45.5114 46.0613 45.1755 46.5712 44.8396C47.0811 44.3358 47.591 44.1679 48.2709 44.1679C48.9508 44.1679 49.6306 44.5037 49.9706 44.8396C50.4805 45.3434 50.6505 45.8473 50.6505 46.519C50.6505 47.1908 50.3105 47.6946 49.9706 48.1984L48.9508 49.206C47.761 50.3816 46.7412 51.3892 45.3814 52.3969C37.053 58.7786 30.9342 61.6335 26.1751 61.6335ZM36.5431 34.4274C35.8632 34.4274 35.1834 34.4274 34.5035 34.5954C32.1239 35.0992 27.7048 36.7786 23.6255 42.8244C23.4556 42.9923 23.4556 43.1602 23.2856 43.3282L23.1156 43.6641L23.4556 43.9999C23.7955 44.3358 24.3054 44.5037 24.8153 44.6717C25.3252 44.8396 25.8351 44.8396 26.345 44.8396C28.8945 44.8396 32.1239 43.6641 34.6735 41.9847C37.053 40.3053 38.7527 38.29 38.9227 36.6106C39.0926 35.9389 38.9227 35.435 38.5827 34.9312L38.4128 34.7633H38.2428C38.2428 34.7633 37.5629 34.4274 36.5431 34.4274Z" fill="#6F00FF"/>
    <path d="M41.9822 87.4963C38.4128 87.4963 34.8435 86.4887 31.6141 84.8093L11.5579 73.2215C5.09909 69.5268 1.18982 62.8093 1.18982 55.5879V32.4123C1.18982 25.191 5.09909 18.4734 11.5579 14.9467L31.7841 3.3589C34.8435 1.51157 38.4128 0.671875 42.1521 0.671875C45.8914 0.671875 49.2908 1.67951 52.5202 3.3589L72.7464 14.9467C79.0352 18.6413 83.1144 25.3589 83.1144 32.5803V55.5879C83.1144 62.8093 79.2052 69.5268 72.7464 73.2215L52.5202 84.8093C49.1208 86.4887 45.5515 87.4963 41.9822 87.4963ZM41.9822 5.03829C39.0927 5.03829 36.3732 5.71004 33.9937 7.22149L13.7675 18.8093C8.83838 21.6642 5.77896 26.8703 5.77896 32.5803V55.5879C5.77896 61.2978 8.83838 66.5039 13.7675 69.3589L33.9937 80.7787C36.3732 82.1223 39.2627 82.962 41.9822 82.962C44.7016 82.962 47.5911 82.2902 49.9706 80.7787L70.1968 69.191C75.1259 66.336 78.1853 61.1299 78.1853 55.42V32.4123C78.1853 26.7024 75.1259 21.4963 70.1968 18.6413L49.9706 7.22149C47.5911 5.87798 44.8716 5.03829 41.9822 5.03829ZM118.808 58.2749H99.0914V31.5726H118.978L117.618 35.6032H103.341V41.9849H116.258V46.0154H103.341V54.0765H118.808V58.2749ZM132.915 38.4581C134.445 38.4581 135.635 38.6261 136.824 39.1299C138.014 39.6337 138.864 40.1375 139.714 40.9772C140.564 41.8169 141.074 42.6566 141.413 43.8322C141.753 45.0078 142.093 46.1833 142.093 47.5268V50.0459C142.093 51.5574 141.923 52.7329 141.413 53.9085C141.074 55.0841 140.394 55.9238 139.714 56.5955C138.864 57.2673 138.014 57.9391 136.994 58.2749C135.974 58.6108 134.785 58.7787 133.425 58.7787C132.405 58.7787 131.385 58.4429 130.366 57.939C129.346 57.4352 128.496 56.7635 127.646 56.0917V65.6642H123.397V43.6642C123.397 42.9925 123.397 42.3207 123.227 41.8169C123.057 41.3131 122.887 40.8093 122.717 40.1375L126.456 38.4581L126.966 39.4658C127.136 39.8016 127.306 40.3055 127.306 40.6413H127.476C128.156 39.9696 129.006 39.2978 129.856 38.962C130.875 38.6261 131.895 38.4581 132.915 38.4581ZM132.745 42.1528C131.725 42.1528 130.705 42.4887 129.856 42.9925C128.836 43.4963 128.156 44.1681 127.476 45.0078V52.0612C127.816 52.3971 128.156 52.9009 128.666 53.2368C129.176 53.5726 129.516 53.9085 130.026 54.2444C130.536 54.5803 131.045 54.7482 131.555 54.9161C132.065 55.0841 132.575 55.252 133.255 55.252C134.105 55.252 134.955 55.0841 135.465 54.9161C135.974 54.5803 136.484 54.2444 136.824 53.7406C137.164 53.2368 137.334 52.7329 137.504 52.0612C137.674 51.3894 137.674 50.7177 137.674 50.0459V48.0307C137.674 47.191 137.674 46.5192 137.504 45.8474C137.334 45.1757 136.994 44.5039 136.654 44.0001C136.314 43.4963 135.805 43.1604 135.125 42.8245C134.445 42.3207 133.765 42.1528 132.745 42.1528ZM148.212 31.0688C148.892 31.0688 149.402 31.2368 149.912 31.7406C150.422 32.2444 150.592 32.7482 150.592 33.42C150.592 34.0917 150.422 34.5955 149.912 35.0994C149.402 35.4352 148.892 35.7711 148.212 35.7711C147.532 35.7711 147.022 35.6032 146.513 35.0994C146.003 34.7635 145.833 34.0917 145.833 33.42C145.833 32.7482 146.003 32.2444 146.513 31.7406C146.852 31.2368 147.532 31.0688 148.212 31.0688ZM146.173 58.2749V38.794H150.422V58.2749H146.173ZM162.15 38.4581C163.509 38.4581 164.699 38.6261 165.889 39.1299C167.079 39.6337 167.928 40.3055 168.778 41.1452L166.059 43.6642C165.549 43.1604 165.039 42.8245 164.359 42.4887C163.679 42.1528 162.999 41.9849 161.98 41.9849C160.96 41.9849 159.94 42.1528 159.26 42.3207C158.58 42.6566 158.24 42.9925 158.24 43.6642C158.24 44.0001 158.24 44.1681 158.41 44.5039C158.58 44.6719 158.75 45.0078 159.09 45.0078C159.26 45.1757 159.6 45.3436 159.94 45.3436C160.28 45.5116 160.62 45.5116 160.96 45.6795C161.98 46.0154 162.829 46.1833 163.849 46.5192C164.869 46.6871 165.719 47.023 166.739 47.5268C167.249 47.6948 167.589 48.0307 168.098 48.3665C168.438 48.7024 168.948 49.0383 169.288 49.3742C169.628 49.71 169.798 50.2139 170.138 50.7177C170.308 51.2215 170.478 51.7253 170.478 52.2291C170.478 53.4047 170.308 54.4123 169.798 55.252C169.288 56.0917 168.778 56.7635 167.928 57.2673C167.079 57.7711 166.229 58.107 165.209 58.4429C164.189 58.6108 163.169 58.7787 162.15 58.7787C160.45 58.7787 158.92 58.4429 157.39 57.939C156.031 57.4352 154.841 56.2597 153.991 54.7482L157.221 52.7329C157.9 53.5726 158.41 54.0765 159.26 54.5803C159.94 54.9161 161.13 55.0841 162.32 55.0841C164.869 55.0841 166.059 54.4123 166.059 52.9009C166.059 52.2291 165.719 51.8933 165.209 51.5574C164.699 51.2215 164.019 50.8856 163.339 50.7177C162.32 50.3818 161.47 50.2139 160.28 49.878C159.26 49.71 158.24 49.3742 157.221 48.8703C156.201 48.3665 155.351 47.6948 154.841 46.8551C154.331 46.0154 153.991 45.0078 153.991 43.8322C153.991 42.9925 154.161 42.1528 154.501 41.481C154.841 40.8093 155.521 40.3055 156.201 39.8016C156.881 39.2978 157.73 38.962 158.75 38.794C159.94 38.4581 160.96 38.4581 162.15 38.4581ZM183.056 58.7787C181.526 58.7787 180.166 58.4429 178.976 57.939C177.787 57.4352 176.767 56.7635 175.917 55.7558C175.067 54.9161 174.557 53.7406 174.047 52.565C173.707 51.3894 173.367 50.0459 173.367 48.5345V47.8627C173.367 46.5192 173.707 45.1757 174.047 44.1681C174.557 42.9925 175.067 41.9849 175.917 41.1452C176.767 40.3055 177.787 39.6337 178.976 39.1299C180.166 38.6261 181.526 38.4581 182.886 38.4581C184.245 38.4581 185.605 38.6261 186.795 39.1299C187.985 39.6337 189.005 40.3055 189.854 41.1452C190.704 41.9849 191.384 42.9925 191.894 44.1681C192.404 45.3436 192.574 46.5192 192.574 47.8627V48.7024C192.574 50.2139 192.404 51.5574 191.894 52.7329C191.384 53.9085 190.874 55.0841 190.024 55.9238C189.174 56.7635 188.155 57.6032 186.965 58.107C185.945 58.4429 184.585 58.7787 183.056 58.7787ZM188.835 48.5345V47.6948C188.835 46.0154 188.325 44.6719 187.475 43.4963C186.625 42.4887 185.095 41.9849 183.226 41.9849C181.186 41.9849 179.826 42.4887 178.976 43.4963C178.127 44.5039 177.617 46.0154 177.617 47.6948V48.7024C177.617 49.71 177.617 50.5497 177.787 51.2215C177.957 52.0612 178.297 52.565 178.636 53.2368C178.976 53.7406 179.656 54.2444 180.336 54.5803C181.016 54.9161 182.036 55.0841 183.226 55.0841C184.415 55.0841 185.265 54.9161 186.115 54.5803C186.795 54.2444 187.475 53.7406 187.815 53.2368C188.325 52.7329 188.495 52.0612 188.665 51.2215C188.665 50.3818 188.835 49.5421 188.835 48.5345ZM210.251 32.2444L214.5 31.0688V55.252C214.5 55.5879 214.67 55.9238 214.67 56.2597C214.84 56.5955 214.84 56.9314 215.01 57.2673L215.52 58.2749H211.1L210.59 57.2673C210.421 56.7635 210.421 56.4276 210.421 56.0917C209.571 56.9314 208.721 57.4352 207.701 58.107C206.681 58.6108 205.661 58.9467 204.472 58.9467C203.112 58.9467 201.922 58.7787 200.902 58.2749C199.882 57.7711 199.033 57.2673 198.353 56.4276C197.673 55.5879 197.163 54.7482 196.823 53.7406C196.483 52.7329 196.313 51.5574 196.313 50.2139V48.3665C196.313 45.1757 197.163 42.6566 198.863 40.9772C200.562 39.2978 203.112 38.4581 206.511 38.4581C207.701 38.4581 209.061 38.6261 210.251 39.1299V32.2444ZM210.251 42.9925C209.741 42.6566 209.061 42.4887 208.211 42.3207C207.531 42.1528 206.851 42.1528 206.171 42.1528C205.152 42.1528 204.302 42.3207 203.622 42.6566C202.942 42.9925 202.262 43.3284 201.922 43.8322C201.412 44.336 201.072 45.0078 200.902 45.6795C200.732 46.3513 200.562 47.191 200.562 48.0307V49.3742C200.562 50.0459 200.562 50.7177 200.732 51.5574C200.902 52.2291 201.072 52.9009 201.412 53.4047C201.752 53.9085 202.092 54.4123 202.602 54.5803C203.112 54.9161 203.792 55.0841 204.642 55.0841C205.151 55.0841 205.661 54.9161 206.341 54.7482C206.851 54.5803 207.361 54.4123 207.871 54.0765C208.381 53.7406 208.891 53.4047 209.231 53.0688C209.741 52.7329 210.081 52.3971 210.421 51.8932V42.9925H210.251ZM222.828 49.878C222.828 50.5497 222.998 51.3894 223.168 51.8932C223.338 52.565 223.678 53.0688 224.188 53.5726C224.698 54.0765 225.208 54.4123 226.058 54.5803C226.737 54.9161 227.757 54.9161 228.947 54.9161C229.967 54.9161 230.647 54.7482 231.327 54.4123C231.836 54.0765 232.516 53.7406 233.026 53.0688L236.596 54.4123C235.746 55.7558 234.726 56.7635 233.366 57.4352C232.006 58.107 230.477 58.4429 228.947 58.4429C225.718 58.4429 223.168 57.6032 221.468 55.9238C219.769 54.2444 218.919 51.7253 218.919 48.5345V48.0307V47.023V46.1833C218.919 45.0078 219.259 43.8322 219.769 42.8245C220.279 41.8169 220.959 40.9772 221.808 40.3055C222.658 39.6337 223.678 38.962 224.698 38.6261C225.888 38.2902 227.077 38.1223 228.267 38.1223C229.627 38.1223 230.987 38.2902 232.006 38.794C233.196 39.2978 234.046 39.8016 234.896 40.6413C235.746 41.481 236.256 42.4887 236.596 43.4963C236.936 44.6719 237.275 45.8475 237.275 47.3589V49.5421H222.828V49.878ZM222.828 46.3513H232.856C232.856 45.6795 232.686 45.1757 232.516 44.6719C232.346 44.1681 232.006 43.6642 231.497 43.3284C230.987 42.9925 230.477 42.6566 229.967 42.4887C229.457 42.3207 228.777 42.1528 228.097 42.1528C227.417 42.1528 226.737 42.1528 226.228 42.3207C225.548 42.4887 225.038 42.6566 224.528 42.9925C224.018 43.3284 223.678 43.8322 223.338 44.336C222.998 45.0078 222.828 45.5116 222.828 46.3513ZM252.913 54.2444H257.162V37.4505L253.762 40.6413L251.043 37.7864L257.162 31.9085H261.411V54.0765H265.66V58.2749H252.913V54.2444Z" fill="#6F00FF"/>
</svg>
