<svg width="266" height="47" viewBox="0 0 266 47" fill="none" xmlns="http://www.w3.org/2000/svg">
    <path d="M261.389 46.3224C258.818 46.3224 256.779 44.2435 256.779 41.6224C256.779 39.0464 258.818 36.9224 261.389 36.9224C263.961 36.9224 266 39.0012 266 41.6224C266 44.1983 263.961 46.3224 261.389 46.3224Z" fill="#F6861F"/>
    <path d="M20.5707 25.3529H10.108V41.5317H21.1913C27.3537 41.5317 30.1467 38.1423 30.1467 33.3067C30.191 27.025 25.403 25.3529 20.5707 25.3529ZM19.2407 6.41731H10.108V20.6981H19.1963C24.6937 20.6981 27.8413 18.4385 27.8413 13.2865C27.8413 9.30963 25.7577 6.41731 19.2407 6.41731ZM21.7677 46.1413H0.354667C0.133001 45.4183 0 44.7404 0 44.0173C0 43.2942 0.133001 42.6164 0.354667 41.8933H4.83233V6.10096H0.354667C0.133001 5.37788 0 4.70001 0 3.97693C0 3.25385 0.133001 2.57596 0.354667 1.85289H20.9697C29.659 1.85289 33.4273 7.27597 33.4273 13.0606C33.4273 15.8173 32.5407 20.1106 28.1073 22.2798C31.521 23.6356 35.8657 26.3471 35.8657 33.2163C35.91 39.95 31.255 46.1413 21.7677 46.1413ZM58.653 30.5952L51.1607 31.4087C46.816 31.9058 44.3777 33.6683 44.3777 37.9164C44.3777 40.899 46.5943 42.8423 50.1853 42.8423C54.2197 42.8423 58.6973 40.2212 58.6973 35.5664V30.5952H58.653ZM67.5197 46.1413H58.8747V41.9837C57.6777 44.2885 55.062 46.9548 49.1657 46.9548C43.358 46.9548 39.2793 43.5654 39.2793 37.7808C39.2793 32.3577 42.161 28.2452 49.875 27.5221L58.653 26.6635V25.624C58.653 21.2404 57.1457 18.7548 51.5153 18.7548C47.2593 18.7548 43.7127 21.2404 42.028 22.5962V17.8058C43.5797 16.6308 47.1707 14.4615 52.801 14.4615C56.392 14.4615 63.707 15.3202 63.707 24.8558V42.3452H67.5197C67.7413 42.9327 67.8743 43.6106 67.8743 44.2433C67.8743 44.876 67.7857 45.5538 67.5197 46.1413ZM84.721 46.1413H71.554C71.3323 45.5538 71.1993 44.876 71.1993 44.2433C71.1993 43.6558 71.3323 42.9779 71.554 42.3452H75.6327V3.79616H71.554C71.3323 3.20866 71.1993 2.53077 71.1993 1.89808C71.1993 1.31058 71.3323 0.632692 71.554 0H80.6867V42.3H84.7653C84.987 42.8875 85.12 43.5654 85.12 44.1981C85.0757 44.876 84.9427 45.5538 84.721 46.1413ZM99.7057 18.8904C92.3907 18.8904 91.4153 26.7539 91.4153 30.6856C91.4153 37.5096 94.164 42.6615 99.5727 42.6615C102.676 42.6615 107.819 40.3567 107.819 31.0019C107.819 26.6635 106.755 18.8904 99.7057 18.8904ZM116.641 46.1413H107.863V41.6221C106.666 44.9663 102.986 46.9548 99.4397 46.9548C89.0657 46.9548 86.1397 37.6452 86.1397 30.0981C86.1397 21.1048 90.6617 14.4164 98.7303 14.4164C103.873 14.4164 106.4 17.5798 107.553 19.3423V3.79616H103.607C103.297 3.20866 103.208 2.53077 103.208 1.89808C103.208 1.31058 103.341 0.632692 103.607 0H112.651V42.3H116.597C116.907 42.8875 117.04 43.5654 117.04 44.1981C117.084 44.876 116.951 45.5538 116.641 46.1413ZM131.537 18.7096C125.951 18.7096 123.956 24.901 123.956 28.426H139.029C138.985 24.3587 137.611 18.7096 131.537 18.7096ZM123.956 32.2221C124.178 37.3289 127.37 42.4356 133.532 42.4356C137.877 42.4356 140.581 40.7183 142.886 39.2269V44.3337C140.847 45.5538 137.167 47 133.576 47C122.892 47 118.547 39.0914 118.547 30.6856C118.547 22.2346 122.537 14.4615 131.626 14.4615C141.29 14.4615 144.349 22.5962 144.349 30.9567V32.2221H123.956ZM167.447 20.924C166.738 20.5173 165.674 20.0202 163.812 20.0202C160.841 20.0202 156.763 22.2798 156.763 30.2337V42.3904H161.107C161.329 42.9779 161.462 43.6558 161.462 44.2885C161.462 44.876 161.329 45.5539 161.107 46.1865H147.63C147.408 45.599 147.275 44.9212 147.275 44.2885C147.275 43.701 147.408 43.0231 147.63 42.3904H151.709V19.1164H147.63C147.408 18.5289 147.275 17.851 147.275 17.2183C147.275 16.6308 147.408 15.9529 147.63 15.3202H155.965V21.15C156.94 18.5289 160.309 15.3202 164.432 15.3202C165.762 15.3202 166.959 15.5462 167.89 15.9529L167.447 20.924ZM183.717 46.5481C178.353 46.5481 175.604 43.3394 175.604 37.8712V19.0712H170.994C170.772 18.4837 170.639 17.8058 170.639 17.1731C170.639 16.5856 170.772 15.9077 170.994 15.275H175.604V7.00481L180.747 4.20289V15.275H187.885C188.106 15.9077 188.239 16.5404 188.239 17.1731C188.239 17.7606 188.106 18.4385 187.885 19.0712H180.747V38.0971C180.747 40.899 182.077 42.3452 184.427 42.3452C186.555 42.3452 188.018 41.6673 188.727 41.3058V45.4183C187.486 46.2769 185.225 46.5481 183.717 46.5481ZM204.82 18.8452C197.549 18.8452 196.042 26.5731 196.042 30.6856C196.042 34.7981 197.549 42.6164 204.82 42.6164C212.091 42.6164 213.642 34.8433 213.642 30.6856C213.642 26.5731 212.091 18.8452 204.82 18.8452ZM204.82 47C195.155 47 190.811 38.6846 190.811 30.6856C190.811 22.7317 195.155 14.4615 204.82 14.4615C214.485 14.4615 218.918 22.7317 218.918 30.6856C218.918 38.6394 214.485 47 204.82 47ZM252.744 46.1413H240.109C239.888 45.5538 239.755 44.876 239.755 44.2433C239.755 43.6558 239.888 42.9779 240.109 42.3452H243.612V27.1606C243.612 22.0538 242.548 18.9356 237.538 18.9356C233.947 18.9356 229.957 21.376 229.957 29.3298V42.3452H233.459C233.681 42.9327 233.814 43.6106 233.814 44.2433C233.814 44.8308 233.681 45.5087 233.459 46.1413H220.824C220.603 45.5538 220.47 44.876 220.47 44.2433C220.47 43.6558 220.603 42.9779 220.824 42.3452H224.903V19.0712H220.824C220.603 18.4837 220.47 17.8058 220.47 17.1731C220.47 16.5856 220.603 15.9077 220.824 15.275H229.159V19.8394C230.312 17.6702 233.193 14.4164 238.779 14.4164C245.119 14.4164 248.666 18.1673 248.666 25.3529V42.3H252.7C252.922 42.8875 253.055 43.5654 253.055 44.1981C253.099 44.876 253.01 45.5538 252.744 46.1413Z" fill="#323740"/>
</svg>
